<?xml version="1.0" encoding="UTF-8"?>
<svg width="224px" height="70px" viewBox="0 0 224 70" version="1.1" xmlns="http://www.w3.org/2000/svg" xmlns:xlink="http://www.w3.org/1999/xlink">
    <!-- Generator: Sketch 61.2 (89653) - https://sketch.com -->
    <title>ADA logo</title>
    <desc>Created with Sketch.</desc>
    <defs>
        <polygon id="path-1" points="0.122189873 0.131139241 44.6466203 0.131139241 44.6466203 52.6792532 0.122189873 52.6792532"></polygon>
        <polygon id="path-3" points="0 69.1139241 223.284051 69.1139241 223.284051 0.131139241 0 0.131139241"></polygon>
    </defs>
    <g id="ADA-Home-Page" stroke="none" stroke-width="1" fill="none" fill-rule="evenodd">
        <g id="ADA-home-page" transform="translate(-112.000000, -84.000000)">
            <g id="ADA-logo" transform="translate(112.000000, 84.000000)">
                <g id="Group-41">
                    <path d="M20.0180506,0.891924051 L1.3218481,53.4335696 L13.6675443,53.4335696 L17.6407089,42.2592658 L35.3799494,42.2592658 L39.2822278,53.4335696 L51.522481,53.4335696 L32.8617215,0.891924051 L20.0180506,0.891924051 Z M26.4748861,12.7768608 L32.5064051,31.5802785 L20.3015949,31.5802785 L26.4748861,12.7768608 Z" id="Fill-1" fill="#162E51"></path>
                    <g id="Group-40" transform="translate(0.000000, 0.755025)">
                        <g id="Group-4" transform="translate(54.936709, 0.000000)">
                            <mask id="mask-2" fill="white">
                                <use xlink:href="#path-1"></use>
                            </mask>
                            <g id="Clip-3"></g>
                            <path d="M12.5751013,42.8517848 L17.541557,42.8517848 C24.7435823,42.8517848 31.7329494,38.3815316 31.7329494,26.0349494 C31.7329494,15.0724177 26.198519,9.99963291 17.6133291,9.99963291 L12.5751013,9.99963291 L12.5751013,42.8517848 Z M17.4352278,0.207607595 C36.4867468,0.775582278 44.6466203,10.8865949 44.6466203,26.2130506 C44.6466203,42.0357089 35.9551013,52.6792532 17.2225696,52.6792532 L0.122189873,52.6792532 L0.122189873,0.136721519 C1.43535443,0.136721519 12.8940886,0.101278481 17.4352278,0.207607595 L17.4352278,0.207607595 Z" id="Fill-2" fill="#162E51" mask="url(#mask-2)"></path>
                        </g>
                        <path d="M128.940886,30.8248987 L122.909367,12.021481 L116.736962,30.8248987 L128.940886,30.8248987 Z M116.452532,0.136544304 L129.295316,0.136544304 L147.956962,52.6790759 L135.716709,52.6790759 L131.81443,41.5038861 L114.076076,41.5038861 L110.102025,52.6790759 L97.7563291,52.6790759 L116.452532,0.136544304 Z" id="Fill-5" fill="#162E51"></path>
                        <mask id="mask-4" fill="white">
                            <use xlink:href="#path-3"></use>
                        </mask>
                        <g id="Clip-8"></g>
                        <polygon id="Fill-7" fill="#162E51" mask="url(#mask-4)" points="150.913797 52.6789873 158.681139 52.6789873 158.681139 45.1402532 150.913797 45.1402532"></polygon>
                        <path d="M161.386506,42.2262152 C161.386506,35.8438101 165.526253,31.6207722 171.423975,31.6207722 C176.934481,31.6207722 180.32638,35.3041899 180.395494,39.1391266 L174.636,39.1391266 C174.262076,37.463557 173.210304,36.1902658 171.285747,36.1902658 C169.25043,36.1902658 167.409165,37.6301392 167.409165,42.0463418 C167.409165,47.0721646 169.762582,47.8891266 171.521443,47.8891266 C173.072076,47.8891266 174.207139,46.9055823 174.497772,45.9645696 L174.746759,45.2308987 L171.174987,45.2308987 L171.174987,41.5200127 L180.562076,41.5758354 L180.562076,52.4019114 L176.934481,52.4019114 L176.934481,50.1317848 C175.910177,51.183557 174.470304,52.6792532 171.091696,52.6792532 C165.248911,52.6792532 161.386506,48.4012785 161.386506,42.2262152" id="Fill-9" fill="#162E51" mask="url(#mask-4)"></path>
                        <path d="M197.33319,42.2815949 C197.33319,37.7129873 195.685975,36.0374177 193.414962,36.0374177 C191.144835,36.0374177 189.483443,37.7129873 189.483443,42.2815949 C189.483443,46.6977975 191.144835,48.2626076 193.414962,48.2626076 C195.685975,48.2626076 197.33319,46.6977975 197.33319,42.2815949 M183.460785,42.1983038 C183.460785,35.7884304 187.433949,31.6212152 193.414962,31.6212152 C199.368506,31.6212152 203.314203,35.7884304 203.314203,42.1983038 C203.314203,48.5390633 199.451797,52.6788101 193.414962,52.6788101 C187.32319,52.6788101 183.460785,48.5807089 183.460785,42.1983038" id="Fill-10" fill="#162E51" mask="url(#mask-4)"></path>
                        <polygon id="Fill-11" fill="#162E51" mask="url(#mask-4)" points="216.375139 52.4021772 210.297544 52.4021772 203.38881 31.8974937 208.580329 31.8974937 213.342987 45.936481 218.078177 31.8974937 223.283873 31.8974937"></polygon>
                        <path d="M4.78950633,65.6475063 L3.86355696,62.7606709 L2.9154557,65.6475063 L4.78950633,65.6475063 Z M2.8711519,60.9353544 L4.84444304,60.9353544 L7.71001266,69.0048481 L5.82975949,69.0048481 L5.23077215,67.288519 L2.50608861,67.288519 L1.89646835,69.0048481 L0.000265822785,69.0048481 L2.8711519,60.9353544 Z" id="Fill-12" fill="#162E51" mask="url(#mask-4)"></path>
                        <polygon id="Fill-13" fill="#162E51" mask="url(#mask-4)" points="9.19693671 60.935 11.9978228 60.935 13.5723797 66.2691772 15.1628861 60.935 17.9469367 60.935 17.9469367 69.0044937 16.0409873 69.0044937 16.0409873 62.9942405 14.2803544 69.0044937 12.8582025 69.0044937 11.1090886 63.0110759 11.1090886 69.0044937 9.19693671 69.0044937"></polygon>
                        <polygon id="Fill-14" fill="#162E51" mask="url(#mask-4)" points="20.1046203 60.935 25.8587975 60.935 25.8472785 62.5201899 22.0229747 62.5201899 22.0229747 64.1709494 25.2863924 64.1709494 25.2863924 65.718038 22.0061392 65.718038 22.0061392 67.4024684 25.8906962 67.4077848 25.8906962 69.0044937 20.1046203 69.0044937"></polygon>
                        <path d="M32.2457215,63.4738734 C32.2457215,62.8199494 31.7282532,62.3627342 31.1124304,62.3627342 L29.684962,62.3627342 L29.684962,64.624 L31.0521772,64.624 C31.7663544,64.624 32.2457215,64.1056456 32.2457215,63.4738734 L32.2457215,63.4738734 Z M32.3166076,69.0047595 L31.0743291,66.0621013 L29.684962,66.0621013 L29.684962,69.0047595 L27.783443,69.0047595 L27.783443,60.9352658 L31.3197722,60.9352658 C33.3355949,60.9352658 34.1640759,62.0029873 34.1640759,63.4410886 C34.1640759,64.7002025 33.5642025,65.3381772 32.8128101,65.7564051 L34.2668608,69.0047595 L32.3166076,69.0047595 Z" id="Fill-15" fill="#162E51" mask="url(#mask-4)"></path>
                        <polygon id="Fill-16" fill="#162E51" mask="url(#mask-4)" points="36.0836709 69.0049367 37.9851899 69.0049367 37.9851899 60.935443 36.0836709 60.935443"></polygon>
                        <path d="M46.9641519,63.6642025 L44.9749114,63.6757215 C44.8393418,62.8800253 44.3431392,62.362557 43.4987089,62.362557 C42.5293418,62.362557 41.8913671,63.0377468 41.8913671,64.9117975 C41.8913671,66.7982532 42.5231392,67.5771139 43.5102278,67.5771139 C44.3103544,67.5771139 44.8278228,66.9391392 44.970481,66.1390127 L46.953519,66.1593924 C46.7461772,67.7507848 45.9557975,69.1135696 43.5695949,69.1135696 C41.2755443,69.1135696 39.8046582,67.3697722 39.8046582,64.8852152 C39.8046582,62.4059747 41.2542785,60.8261013 43.558962,60.8261013 C45.4330127,60.8261013 46.7895949,62.013443 46.9641519,63.6642025" id="Fill-17" fill="#162E51" mask="url(#mask-4)"></path>
                        <path d="M52.6739367,65.6475063 L51.7479873,62.7606709 L50.7998861,65.6475063 L52.6739367,65.6475063 Z M50.7555823,60.9353544 L52.7288734,60.9353544 L55.594443,69.0048481 L53.7141899,69.0048481 L53.1152025,67.288519 L50.390519,67.288519 L49.7808987,69.0048481 L47.8846962,69.0048481 L50.7555823,60.9353544 Z" id="Fill-18" fill="#162E51" mask="url(#mask-4)"></path>
                        <polygon id="Fill-19" fill="#162E51" mask="url(#mask-4)" points="64.3011139 60.935 64.3011139 69.0044937 62.5847848 69.0044937 58.9828861 63.8227215 58.9828861 69.0044937 57.0813671 69.0044937 57.0813671 60.935 58.9882025 60.935 62.3995949 65.8553797 62.3995949 60.935"></polygon>
                        <path d="M66.0636962,66.6391139 L68.0414177,66.6231646 C68.1831899,67.2779747 68.7821772,67.643038 69.6053418,67.643038 C70.401038,67.643038 71.0983797,67.3967089 71.0983797,66.7702532 C71.0983797,66.22 70.4666076,66.0303797 69.7311646,65.893038 L68.3852152,65.6422785 C67.1323038,65.4243038 66.3250886,64.6667089 66.3038228,63.3597468 C66.2869873,61.7843038 67.752557,60.8362025 69.5778734,60.8362025 C71.5290127,60.8362025 72.8368608,62.0244304 72.9786329,63.3163291 L71.054962,63.3322785 C70.9566076,62.5968354 70.4223038,62.3186076 69.6159747,62.3186076 C68.7440759,62.3186076 68.3355949,62.6951899 68.3355949,63.1311392 C68.3355949,63.5502532 68.5544557,63.7903797 69.3439494,63.9534177 L70.6783797,64.1988608 C72.8528101,64.5851899 73.0433165,65.9479747 73.0433165,66.7658228 C73.0433165,68.0993671 71.6158481,69.1139241 69.6159747,69.1139241 C67.9545823,69.1139241 66.2276203,68.3510127 66.0636962,66.6391139" id="Fill-20" fill="#162E51" mask="url(#mask-4)"></path>
                        <polygon id="Fill-21" fill="#162E51" mask="url(#mask-4)" points="86.3236456 69.0049367 84.8633924 69.0049367 83.4687089 64.1713924 82.0625063 69.0049367 80.6244051 69.0049367 78.2213671 60.935443 80.0679494 60.935443 81.4413671 65.7681013 82.7926329 60.935443 84.1438987 60.935443 85.5279494 65.7681013 86.8738987 60.935443 88.7213671 60.935443"></polygon>
                        <polygon id="Fill-22" fill="#162E51" mask="url(#mask-4)" points="90.1848101 69.0049367 92.0863291 69.0049367 92.0863291 60.935443 90.1848101 60.935443"></polygon>
                        <polygon id="Fill-23" fill="#162E51" mask="url(#mask-4)" points="93.5342658 60.935 100.148823 60.935 100.148823 62.6185443 97.8007215 62.6185443 97.8007215 69.0044937 95.8992025 69.0044937 95.8992025 62.6185443 93.5342658 62.6185443"></polygon>
                        <polygon id="Fill-24" fill="#162E51" mask="url(#mask-4)" points="103.493937 65.6535316 103.493937 69.0046709 101.592418 69.0046709 101.592418 60.9351772 103.493937 60.9351772 103.493937 64.0842911 106.256722 64.0842911 106.256722 60.9351772 108.158241 60.9351772 108.158241 69.0046709 106.256722 69.0046709 106.256722 65.6535316"></polygon>
                        <path d="M116.212671,67.4957722 L116.975582,67.4957722 C118.081405,67.4957722 119.155329,66.8090633 119.155329,64.9119747 C119.155329,63.2293165 118.304696,62.4495696 116.987101,62.4495696 L116.212671,62.4495696 L116.212671,67.4957722 Z M116.959633,60.9450127 C119.885456,61.0327342 121.138367,62.5860253 121.138367,64.939443 C121.138367,67.3690633 119.803937,69.0047595 116.926848,69.0047595 L114.300519,69.0047595 L114.300519,60.9352658 C114.501658,60.9352658 116.262291,60.9299494 116.959633,60.9450127 L116.959633,60.9450127 Z" id="Fill-25" fill="#162E51" mask="url(#mask-4)"></path>
                        <polygon id="Fill-26" fill="#162E51" mask="url(#mask-4)" points="122.957215 69.0049367 124.858734 69.0049367 124.858734 60.935443 122.957215 60.935443"></polygon>
                        <path d="M126.640899,66.6391139 L128.61862,66.6231646 C128.760392,67.2779747 129.35938,67.643038 130.182544,67.643038 C130.978241,67.643038 131.675582,67.3967089 131.675582,66.7702532 C131.675582,66.22 131.04381,66.0303797 130.308367,65.893038 L128.962418,65.6422785 C127.709506,65.4243038 126.902291,64.6667089 126.881025,63.3597468 C126.86419,61.7843038 128.329759,60.8362025 130.155076,60.8362025 C132.106215,60.8362025 133.414063,62.0244304 133.555835,63.3163291 L131.632165,63.3322785 C131.53381,62.5968354 130.999506,62.3186076 130.193177,62.3186076 C129.321278,62.3186076 128.912797,62.6951899 128.912797,63.1311392 C128.912797,63.5502532 129.131658,63.7903797 129.921152,63.9534177 L131.255582,64.1988608 C133.430013,64.5851899 133.620519,65.9479747 133.620519,66.7658228 C133.620519,68.0993671 132.193051,69.1139241 130.193177,69.1139241 C128.531785,69.1139241 126.804823,68.3510127 126.640899,66.6391139" id="Fill-27" fill="#162E51" mask="url(#mask-4)"></path>
                        <path d="M139.431937,65.6475063 L138.505987,62.7606709 L137.557886,65.6475063 L139.431937,65.6475063 Z M137.513582,60.9353544 L139.486873,60.9353544 L142.352443,69.0048481 L140.47219,69.0048481 L139.873203,67.288519 L137.148519,67.288519 L136.538899,69.0048481 L134.642696,69.0048481 L137.513582,60.9353544 Z" id="Fill-28" fill="#162E51" mask="url(#mask-4)"></path>
                        <path d="M147.130165,67.5607215 C147.936494,67.5607215 148.350291,67.1407215 148.350291,66.5957848 C148.350291,66.0127468 147.877127,65.664519 147.201051,65.664519 L145.740797,65.664519 L145.740797,67.5607215 L147.130165,67.5607215 Z M147.201051,64.1767975 C147.794722,64.1767975 148.263456,63.8666709 148.263456,63.3048987 C148.263456,62.7165443 147.768139,62.3780633 147.108899,62.3780633 L145.740797,62.3780633 L145.740797,64.1767975 L147.201051,64.1767975 Z M143.839278,60.9346456 L146.917506,60.9346456 C149.10257,60.9346456 150.094089,61.6922405 150.094089,63.0603418 C150.094089,63.8338861 149.76181,64.3947722 148.742823,64.8635063 C150.121557,65.2507215 150.285481,66.1394557 150.285481,66.8137595 C150.285481,68.3076835 149.348013,69.0050253 147.076114,69.0050253 L143.839278,69.0050253 L143.839278,60.9346456 Z" id="Fill-29" fill="#162E51" mask="url(#mask-4)"></path>
                        <polygon id="Fill-30" fill="#162E51" mask="url(#mask-4)" points="152.098481 69.0049367 154 69.0049367 154 60.935443 152.098481 60.935443"></polygon>
                        <polygon id="Fill-31" fill="#162E51" mask="url(#mask-4)" points="158.068949 60.935 158.068949 67.4184177 161.430722 67.4184177 161.430722 69.0044937 156.156797 69.0044937 156.162114 60.935"></polygon>
                        <polygon id="Fill-32" fill="#162E51" mask="url(#mask-4)" points="162.974177 69.0049367 164.875696 69.0049367 164.875696 60.935443 162.974177 60.935443"></polygon>
                        <polygon id="Fill-33" fill="#162E51" mask="url(#mask-4)" points="166.323987 60.935 172.938544 60.935 172.938544 62.6185443 170.589557 62.6185443 170.589557 69.0044937 168.688038 69.0044937 168.688038 62.6185443 166.323987 62.6185443"></polygon>
                        <polygon id="Fill-34" fill="#162E51" mask="url(#mask-4)" points="174.382405 69.0049367 176.283924 69.0049367 176.283924 60.935443 174.382405 60.935443"></polygon>
                        <polygon id="Fill-35" fill="#162E51" mask="url(#mask-4)" points="178.440899 60.935 184.19419 60.935 184.183557 62.5201899 180.359253 62.5201899 180.359253 64.1709494 183.622671 64.1709494 183.622671 65.718038 180.342418 65.718038 180.342418 67.4024684 184.226975 67.4077848 184.226975 69.0044937 178.440899 69.0044937"></polygon>
                        <path d="M185.656747,66.6391139 L187.634468,66.6231646 C187.777127,67.2779747 188.375228,67.643038 189.198392,67.643038 C189.994089,67.643038 190.69143,67.3967089 190.69143,66.7702532 C190.69143,66.22 190.059658,66.0303797 189.324215,65.893038 L187.97738,65.6422785 C186.724468,65.4243038 185.918139,64.6667089 185.896873,63.3597468 C185.880038,61.7843038 187.345608,60.8362025 189.17181,60.8362025 C191.122063,60.8362025 192.429911,62.0244304 192.571684,63.3163291 L190.648013,63.3322785 C190.548772,62.5968354 190.016241,62.3186076 189.209911,62.3186076 C188.337127,62.3186076 187.928646,62.6951899 187.928646,63.1311392 C187.928646,63.5502532 188.147506,63.7903797 188.937,63.9534177 L190.272316,64.1988608 C192.445861,64.5851899 192.636367,65.9479747 192.636367,66.7658228 C192.636367,68.0993671 191.208899,69.1139241 189.209911,69.1139241 C187.547633,69.1139241 185.820671,68.3510127 185.656747,66.6391139" id="Fill-36" fill="#162E51" mask="url(#mask-4)"></path>
                        <path d="M202.653101,65.6475063 L201.726266,62.7606709 L200.779051,65.6475063 L202.653101,65.6475063 Z M200.734747,60.9353544 L202.707152,60.9353544 L205.572722,69.0048481 L203.693354,69.0048481 L203.094367,67.288519 L200.369684,67.288519 L199.759177,69.0048481 L197.862975,69.0048481 L200.734747,60.9353544 Z" id="Fill-37" fill="#162E51" mask="url(#mask-4)"></path>
                        <path d="M213.548203,63.6642025 L211.558962,63.6757215 C211.424278,62.8800253 210.92719,62.362557 210.082759,62.362557 C209.113392,62.362557 208.474532,63.0377468 208.474532,64.9117975 C208.474532,66.7982532 209.10719,67.5771139 210.094278,67.5771139 C210.894405,67.5771139 211.411873,66.9391392 211.553646,66.1390127 L213.536684,66.1593924 C213.330228,67.7507848 212.539848,69.1135696 210.153646,69.1135696 C207.859595,69.1135696 206.388709,67.3697722 206.388709,64.8852152 C206.388709,62.4059747 207.838329,60.8261013 210.143013,60.8261013 C212.017063,60.8261013 213.374532,62.013443 213.548203,63.6642025" id="Fill-38" fill="#162E51" mask="url(#mask-4)"></path>
                        <polygon id="Fill-39" fill="#162E51" mask="url(#mask-4)" points="214.721544 60.935 221.336987 60.935 221.336987 62.6185443 218.988 62.6185443 218.988 69.0044937 217.086481 69.0044937 217.086481 62.6185443 214.721544 62.6185443"></polygon>
                    </g>
                </g>
            </g>
        </g>
    </g>
</svg>